<?xml version="1.0" encoding="UTF-8"?> <svg xmlns="http://www.w3.org/2000/svg" xmlns:xlink="http://www.w3.org/1999/xlink" version="1.1" id="Layer_1" x="0px" y="0px" viewBox="0 0 38 30" style="enable-background:new 0 0 38 30;" xml:space="preserve"> <style type="text/css"> .st0{clip-path:url(#SVGID_00000150101190715306318920000007953129189872540078_);} .st1{fill:#FFFFFF;} </style> <g> <defs> <rect id="SVGID_1_" y="0" width="38" height="29.7"></rect> </defs> <clipPath id="SVGID_00000102539134316141564400000016241775723711098278_"> <use xlink:href="#SVGID_1_" style="overflow:visible;"></use> </clipPath> <g style="clip-path:url(#SVGID_00000102539134316141564400000016241775723711098278_);"> <path class="st1" d="M8.6,15.8H5c-0.1,0-0.2-0.1-0.3-0.2c-0.1-0.1-0.1-0.2-0.1-0.3v-2.4c0-0.1,0-0.2,0.1-0.3 c0.1-0.1,0.2-0.1,0.3-0.1h3.6c0.1,0,0.1,0,0.2,0c0.1,0,0.1,0.1,0.1,0.1c0,0,0.1,0.1,0.1,0.1c0,0.1,0,0.1,0,0.2v2.4 c0,0.1,0,0.2-0.1,0.3C8.8,15.8,8.7,15.8,8.6,15.8z M5.5,14.9h2.8v-1.5H5.5V14.9z"></path> <path class="st1" d="M14.3,15.8h-3.6c-0.1,0-0.2-0.1-0.3-0.2c-0.1-0.1-0.1-0.2-0.1-0.3v-2.4c0-0.1,0-0.2,0.1-0.3 c0.1-0.1,0.2-0.1,0.3-0.1h3.6c0.1,0,0.2,0.1,0.3,0.1c0.1,0.1,0.1,0.2,0.1,0.3v2.4c0,0.1,0,0.2-0.1,0.3 C14.5,15.8,14.4,15.8,14.3,15.8z M11.1,14.9h2.7v-1.5h-2.7V14.9z"></path> <path class="st1" d="M20,15.8h-3.6c-0.1,0-0.2-0.1-0.3-0.1c-0.1-0.1-0.1-0.2-0.1-0.3v-2.4c0-0.1,0-0.2,0.1-0.3 c0.1-0.1,0.2-0.1,0.3-0.1H20c0.1,0,0.2,0.1,0.3,0.1c0.1,0.1,0.1,0.2,0.1,0.3v2.4c0,0.1,0,0.2-0.1,0.3C20.2,15.7,20.1,15.8,20,15.8 L20,15.8z M16.8,14.9h2.7v-1.5h-2.7V14.9z"></path> <path class="st1" d="M8.6,20.1H5c-0.1,0-0.2-0.1-0.3-0.1c-0.1-0.1-0.1-0.2-0.1-0.3v-2.4c0-0.1,0-0.2,0.1-0.3 c0.1-0.1,0.2-0.1,0.3-0.1h3.6c0.1,0,0.2,0.1,0.3,0.1C9,17,9,17.1,9,17.2v2.4c0,0.1,0,0.1,0,0.2s0,0.1-0.1,0.2c0,0-0.1,0.1-0.1,0.1 C8.7,20.1,8.7,20.1,8.6,20.1L8.6,20.1z M5.5,19.2h2.8v-1.5H5.5V19.2z"></path> <path class="st1" d="M14.3,20.1h-3.6c-0.1,0-0.2-0.1-0.3-0.1c-0.1-0.1-0.1-0.2-0.1-0.3v-2.4c0-0.1,0-0.2,0.1-0.3 c0.1-0.1,0.2-0.1,0.3-0.1h3.6c0.1,0,0.2,0.1,0.3,0.1c0.1,0.1,0.1,0.2,0.1,0.3v2.4c0,0.1,0,0.1,0,0.2c0,0.1,0,0.1-0.1,0.2 c0,0-0.1,0.1-0.1,0.1C14.4,20.1,14.3,20.1,14.3,20.1L14.3,20.1z M11.1,19.2h2.7v-1.5h-2.7V19.2z"></path> <path class="st1" d="M20,20.1h-3.6c-0.1,0-0.2-0.1-0.3-0.1c-0.1-0.1-0.1-0.2-0.1-0.3v-2.4c0-0.1,0-0.2,0.1-0.3 c0.1-0.1,0.2-0.1,0.3-0.1H20c0.1,0,0.2,0.1,0.3,0.1c0.1,0.1,0.1,0.2,0.1,0.3v2.4c0,0.1,0,0.2-0.1,0.3C20.2,20,20.1,20.1,20,20.1z M16.8,19.2h2.7v-1.5h-2.7V19.2z"></path> <path class="st1" d="M28.1,17.2h-3.6c-0.1,0-0.2-0.1-0.3-0.1c-0.1-0.1-0.1-0.2-0.1-0.3v-2.4c0-0.1,0-0.2,0.1-0.3 c0.1-0.1,0.2-0.1,0.3-0.1h3.6c0.1,0,0.2,0.1,0.3,0.1c0.1,0.1,0.1,0.2,0.1,0.3v2.4c0,0.1,0,0.2-0.1,0.3 C28.3,17.2,28.2,17.2,28.1,17.2L28.1,17.2z M25,16.3h2.7v-1.5H25V16.3z"></path> <path class="st1" d="M33.4,17.2h-3.5c-0.1,0-0.2-0.1-0.3-0.1c-0.1-0.1-0.1-0.2-0.1-0.3v-2.4c0-0.1,0-0.2,0.1-0.3 c0.1-0.1,0.2-0.1,0.3-0.1h3.5c0.1,0,0.2,0.1,0.3,0.1c0.1,0.1,0.1,0.2,0.1,0.3v2.4c0,0.1,0,0.2-0.1,0.3 C33.6,17.2,33.5,17.2,33.4,17.2L33.4,17.2z M30.3,16.3H33v-1.5h-2.7V16.3z"></path> <path class="st1" d="M28.1,22.8h-3.6c-0.1,0-0.2-0.1-0.3-0.1c-0.1-0.1-0.1-0.2-0.1-0.3v-2.4c0-0.1,0-0.2,0.1-0.3 c0.1-0.1,0.2-0.1,0.3-0.1h3.6c0.1,0,0.2,0.1,0.3,0.1c0.1,0.1,0.1,0.2,0.1,0.3v2.5c0,0.1,0,0.2-0.1,0.3S28.2,22.8,28.1,22.8 L28.1,22.8z M25,21.8h2.7v-1.5H25V21.8z"></path> <path class="st1" d="M33.4,22.8h-3.5c-0.1,0-0.2-0.1-0.3-0.1c-0.1-0.1-0.1-0.2-0.1-0.3v-2.4c0-0.1,0-0.2,0.1-0.3 c0.1-0.1,0.2-0.1,0.3-0.1h3.5c0.1,0,0.2,0.1,0.3,0.1c0.1,0.1,0.1,0.2,0.1,0.3v2.5c0,0.1,0,0.2-0.1,0.3 C33.6,22.7,33.5,22.8,33.4,22.8L33.4,22.8z M30.3,21.8H33v-1.5h-2.7V21.8z"></path> <path class="st1" d="M28.1,11.2h-3.6c-0.1,0-0.2-0.1-0.3-0.1c-0.1-0.1-0.1-0.2-0.1-0.3V8.3c0-0.1,0-0.2,0.1-0.3 c0.1-0.1,0.2-0.1,0.3-0.1h3.6c0.1,0,0.2,0.1,0.3,0.1c0.1,0.1,0.1,0.2,0.1,0.3v2.4c0,0.1,0,0.1,0,0.2c0,0.1,0,0.1-0.1,0.1 c0,0-0.1,0.1-0.1,0.1C28.2,11.2,28.2,11.2,28.1,11.2z M25,10.3h2.7V8.8H25V10.3z"></path> <path class="st1" d="M33.4,11.2h-3.5c-0.1,0-0.1,0-0.2,0c-0.1,0-0.1-0.1-0.1-0.1c0,0-0.1-0.1-0.1-0.1c0-0.1,0-0.1,0-0.2V8.3 c0-0.1,0-0.2,0.1-0.3c0.1-0.1,0.2-0.1,0.3-0.1h3.5c0.1,0,0.2,0.1,0.3,0.1c0.1,0.1,0.1,0.2,0.1,0.3v2.4c0,0.1,0,0.1,0,0.2 s0,0.1-0.1,0.1c0,0-0.1,0.1-0.1,0.1C33.5,11.2,33.5,11.2,33.4,11.2L33.4,11.2z M30.3,10.3H33V8.8h-2.7V10.3z"></path> <path class="st1" d="M1.1,29.7C0,29.7,0,28.2,1,28.2h1.1V11.3H1c-0.2,0-0.4-0.1-0.5-0.2c-0.1-0.1-0.2-0.3-0.2-0.5V7.6 c0-0.2,0.1-0.4,0.2-0.5C0.6,7,0.8,6.9,1,6.9h4.6V3.1c0-0.2,0.1-0.4,0.2-0.5C6,2.4,6.2,2.3,6.4,2.3h12.2c0.1,0,0.2,0,0.3,0.1 s0.2,0.1,0.2,0.2c0.1,0.1,0.1,0.2,0.2,0.2c0,0.1,0.1,0.2,0.1,0.3v3.8h2V5.4h-0.5c-0.2,0-0.4-0.1-0.5-0.2C20.1,5,20,4.8,20,4.6V0.7 c0-0.2,0.1-0.4,0.2-0.5S20.6,0,20.8,0h16.3c0.2,0,0.4,0.1,0.5,0.2c0.1,0.1,0.2,0.3,0.2,0.5v3.9c0,0.2-0.1,0.4-0.2,0.5 c-0.1,0.1-0.3,0.2-0.5,0.2h-0.5v22.8h0.7c0.8,0,0.8,1.5,0,1.5H1.1z M35.1,28.2V5.4H22.8v2.2c0,0,0,0.1,0,0.1v2.9v0.1v17.6H35.1z M21.3,28.2V11.3H3.6v16.9h5.8v-5.9c0-0.2,0.1-0.4,0.2-0.5c0.1-0.1,0.3-0.2,0.5-0.2h4.4c0.2,0,0.4,0.1,0.5,0.2 c0.1,0.1,0.2,0.3,0.2,0.5v5.9H21.3z M13.9,28.2V23H11v5.1H13.9z M2.8,9.7c0,0,0.1,0,0.1,0h18.4V8.4H1.8v1.3L2.8,9.7z M17.8,6.9v-3 H7.1v3L17.8,6.9z M35.9,3.8L35.9,3.8h0.5V1.5H21.5v2.4H22h0.1L35.9,3.8z"></path> </g> </g> </svg> 