<?xml version="1.0" encoding="UTF-8"?> <svg xmlns="http://www.w3.org/2000/svg" width="41" height="35" viewBox="0 0 41 35" fill="none"><g clip-path="url(#clip0_997_3897)"><path d="M22.2664 9.40288H18.2292C18.0819 9.40119 17.9411 9.34194 17.837 9.23778C17.7328 9.13363 17.6736 8.99283 17.6719 8.84554V4.78243C17.6719 4.63463 17.7306 4.49285 17.8351 4.38833C17.9396 4.28382 18.0814 4.2251 18.2292 4.2251H22.2923C22.4401 4.2251 22.5819 4.28382 22.6864 4.38833C22.7909 4.49285 22.8496 4.63463 22.8496 4.78243V8.84554C22.8506 8.92123 22.836 8.99633 22.8067 9.06613C22.7775 9.13592 22.7341 9.19894 22.6794 9.25123C22.6247 9.30353 22.5597 9.344 22.4887 9.37009C22.4176 9.39618 22.3419 9.40734 22.2664 9.40288ZM18.7606 8.33361H21.7221V5.36563H18.7606V8.33361Z" fill="#ffffff"></path><path d="M0.881309 35C0.647569 35 0.423399 34.9072 0.25812 34.7419C0.0928404 34.5766 0 34.3524 0 34.1187C0 33.8849 0.0928404 33.6608 0.25812 33.4955C0.423399 33.3302 0.647569 33.2374 0.881309 33.2374H2.52733V16.3887H0.881309C0.716444 16.3863 0.555667 16.3371 0.417754 16.2467C0.27984 16.1563 0.170493 16.0286 0.10252 15.8784C0.0345477 15.7282 0.0107403 15.5617 0.0338965 15.3984C0.0570527 15.2352 0.126214 15.0819 0.233281 14.9565L7.36159 6.66174C7.44254 6.56876 7.542 6.49368 7.65357 6.44124C7.76514 6.3888 7.88638 6.36018 8.00962 6.35719H15.099V5.06113L14.8593 5.20368C14.7251 5.28739 14.5703 5.33226 14.4121 5.33329C14.22 5.33608 14.0323 5.27501 13.8785 5.1597C13.7248 5.04438 13.6136 4.88133 13.5625 4.69606C13.5114 4.51079 13.5231 4.31378 13.596 4.13592C13.6688 3.95806 13.7986 3.8094 13.965 3.71322L15.5203 2.76064C15.5623 2.72931 15.608 2.7032 15.6564 2.68288L19.7908 0.155554C19.9268 0.0706849 20.084 0.0257669 20.2444 0.0259404C20.4038 0.026723 20.5601 0.0691708 20.698 0.149067L24.8454 2.68288C24.9474 2.7224 25.0417 2.77938 25.1241 2.85133L26.5303 3.71322C26.7298 3.83861 26.8736 4.03575 26.9321 4.26403C26.9584 4.37389 26.9623 4.48798 26.9433 4.59936C26.9244 4.71074 26.8831 4.81709 26.8219 4.91206C26.7438 5.04332 26.6328 5.1519 26.4998 5.22694C26.3668 5.30197 26.2164 5.34087 26.0637 5.33978C25.8885 5.34675 25.7164 5.29168 25.5777 5.18426L25.4092 5.08055V6.33124H32.4857C32.6089 6.33423 32.7302 6.36289 32.8417 6.41533C32.9533 6.46777 33.0527 6.54286 33.1337 6.63584L40.262 14.9241C40.3714 15.0504 40.4424 15.2054 40.4665 15.3708C40.4906 15.5361 40.4669 15.705 40.3981 15.8573C40.3386 16.0157 40.231 16.1515 40.0903 16.2457C39.9497 16.3398 39.7831 16.3875 39.614 16.3822H37.3264V33.2309H39.614C39.8477 33.2309 40.0719 33.3238 40.2372 33.4891C40.4024 33.6543 40.4953 33.8785 40.4953 34.1122C40.497 34.2285 40.4754 34.3438 40.4318 34.4516C40.3881 34.5593 40.3232 34.6571 40.241 34.7393C40.1588 34.8215 40.061 34.8864 39.9533 34.93C39.8456 34.9737 39.7302 34.9953 39.614 34.9936L0.881309 35ZM35.5638 33.2374V16.3887H4.29643V33.2374H16.2007V21.3331C16.2007 21.2168 16.2237 21.1017 16.2684 20.9943C16.3131 20.887 16.3786 20.7895 16.4611 20.7076C16.5436 20.6257 16.6416 20.5609 16.7493 20.517C16.8569 20.4731 16.9722 20.4509 17.0885 20.4518H23.4133C23.647 20.4518 23.8712 20.5446 24.0365 20.7099C24.2017 20.8752 24.2946 21.0994 24.2946 21.3331V33.2374H35.5638ZM22.532 33.2374V22.2209H17.9504V33.2374H22.532ZM36.471 14.5936H36.5617H37.6699L32.032 8.05502H25.4157V13.4531C25.3574 13.9715 24.9167 14.1011 24.5149 14.1011H15.9868C15.4231 14.1011 15.1055 13.9521 15.1055 13.4531V8.07444H8.41139L2.793 14.5936H3.32439C3.32439 14.5936 3.32439 14.5936 3.40863 14.5936H36.471ZM23.653 12.5847V3.97894L20.2444 1.89875L16.8682 3.95948V12.5847H23.653Z" fill="#ffffff"></path><path d="M13.2647 26.7571H7.66569C7.51841 26.7554 7.37764 26.6961 7.27349 26.592C7.16934 26.4878 7.11008 26.347 7.1084 26.1998V21.2294C7.11008 21.0821 7.16934 20.9413 7.27349 20.8372C7.37764 20.733 7.51841 20.6737 7.66569 20.6721H13.2647C13.4125 20.6721 13.5542 20.7308 13.6587 20.8353C13.7632 20.9398 13.822 21.0816 13.822 21.2294V26.1998C13.8187 26.3465 13.7589 26.4864 13.6551 26.5902C13.5513 26.694 13.4114 26.7538 13.2647 26.7571ZM8.22299 25.6619H12.7592V21.7737H8.22299V25.6619Z" fill="#ffffff"></path><path d="M32.3496 26.7571H26.7507C26.6034 26.7554 26.4626 26.6961 26.3585 26.592C26.2543 26.4878 26.195 26.347 26.1934 26.1998V21.2294C26.1934 21.1562 26.2078 21.0837 26.2358 21.0161C26.2638 20.9485 26.3048 20.887 26.3566 20.8353C26.4083 20.7835 26.4698 20.7425 26.5374 20.7145C26.605 20.6865 26.6775 20.6721 26.7507 20.6721H32.3496C32.4969 20.6737 32.6377 20.733 32.7419 20.8372C32.846 20.9413 32.9053 21.0821 32.907 21.2294V26.1998C32.9078 26.2732 32.894 26.346 32.8663 26.4141C32.8386 26.4821 32.7976 26.5438 32.7457 26.5958C32.6937 26.6477 32.6319 26.6887 32.5639 26.7164C32.4959 26.7441 32.4231 26.7579 32.3496 26.7571ZM27.3015 25.6619H31.8377V21.7737H27.3015V25.6619Z" fill="#ffffff"></path></g><defs><clipPath id="clip0_997_3897"><rect width="40.4823" height="35" fill="white"></rect></clipPath></defs></svg> 