<?xml version="1.0" encoding="UTF-8"?> <svg xmlns="http://www.w3.org/2000/svg" width="40" height="35" viewBox="0 0 40 35" fill="none"><g clip-path="url(#clip0_997_3899)"><path d="M12.004 15.6319H8.52329C8.39273 15.6304 8.26794 15.5779 8.17562 15.4856C8.08329 15.3932 8.03077 15.2684 8.0293 15.1379V12.0547C8.03079 11.9246 8.0835 11.8004 8.17598 11.709C8.26846 11.6176 8.39325 11.5663 8.52329 11.5663H12.004C12.1335 11.5663 12.2577 11.6178 12.3493 11.7094C12.4409 11.801 12.4923 11.9251 12.4923 12.0547V15.1549C12.4866 15.2815 12.433 15.4012 12.3423 15.4898C12.2516 15.5783 12.1307 15.6291 12.004 15.6319ZM8.99459 14.6666H11.5157V12.56H8.99459V14.6666Z" fill="#ffffff"></path><path d="M18.4251 15.6319H14.9444C14.8143 15.6304 14.6901 15.5777 14.5987 15.4852C14.5073 15.3927 14.456 15.2679 14.4561 15.1379V12.0547C14.4561 11.9251 14.5075 11.801 14.5991 11.7094C14.6907 11.6178 14.8149 11.5663 14.9444 11.5663H18.4251C18.5546 11.5663 18.6788 11.6178 18.7704 11.7094C18.8619 11.801 18.9134 11.9251 18.9134 12.0547V15.1549C18.9104 15.2825 18.8577 15.4038 18.7664 15.4929C18.6751 15.582 18.5526 15.6319 18.4251 15.6319ZM15.4327 14.6666H17.9538V12.56H15.4327V14.6666Z" fill="#ffffff"></path><path d="M24.8704 15.6319H21.3897C21.2597 15.6304 21.1355 15.5777 21.044 15.4852C20.9526 15.3927 20.9014 15.2679 20.9014 15.1379V12.0547C20.9014 11.9905 20.914 11.927 20.9386 11.8678C20.9631 11.8085 20.9991 11.7547 21.0444 11.7094C21.0897 11.664 21.1436 11.628 21.2028 11.6035C21.2621 11.579 21.3256 11.5663 21.3897 11.5663H24.8704C25.0004 11.5663 25.1252 11.6176 25.2177 11.709C25.3102 11.8004 25.3629 11.9246 25.3644 12.0547V15.1549C25.3637 15.2188 25.3502 15.2819 25.3249 15.3405C25.2997 15.3992 25.263 15.4522 25.217 15.4966C25.1711 15.5409 25.1168 15.5758 25.0573 15.599C24.9978 15.6222 24.9342 15.6334 24.8704 15.6319ZM21.878 14.6666H24.3991V12.56H21.878V14.6666Z" fill="#ffffff"></path><path d="M31.3097 15.6319H27.8233C27.6932 15.6304 27.5691 15.5777 27.4776 15.4852C27.3862 15.3927 27.335 15.2679 27.335 15.1379V12.0547C27.335 11.9251 27.3864 11.801 27.478 11.7094C27.5696 11.6178 27.6938 11.5663 27.8233 11.5663H31.3097C31.4387 11.5678 31.562 11.6197 31.6533 11.711C31.7446 11.8023 31.7965 11.9256 31.798 12.0547V15.1549C31.7972 15.2183 31.784 15.2809 31.7591 15.3392C31.7341 15.3975 31.698 15.4502 31.6526 15.4945C31.6073 15.5388 31.5536 15.5738 31.4948 15.5973C31.4359 15.6209 31.373 15.6326 31.3097 15.6319ZM28.3116 14.6666H30.8327V12.56H28.3116V14.6666Z" fill="#ffffff"></path><path d="M12.004 22.122H8.52329C8.39325 22.122 8.26846 22.0707 8.17598 21.9793C8.0835 21.8879 8.03079 21.7637 8.0293 21.6337V18.5505C8.03077 18.4199 8.08329 18.2951 8.17562 18.2028C8.26794 18.1105 8.39273 18.0579 8.52329 18.0565H12.004C12.134 18.058 12.2582 18.1106 12.3496 18.2031C12.4411 18.2956 12.4923 18.4204 12.4923 18.5505V21.6337C12.4908 21.7627 12.4389 21.8861 12.3476 21.9773C12.2564 22.0686 12.133 22.1205 12.004 22.122ZM8.99459 21.1624H11.5157V19.0388H8.99459V21.1624Z" fill="#ffffff"></path><path d="M18.4251 22.122H14.9444C14.8149 22.122 14.6907 22.0705 14.5991 21.979C14.5075 21.8874 14.4561 21.7632 14.4561 21.6337V18.5505C14.456 18.4204 14.5073 18.2956 14.5987 18.2031C14.6901 18.1106 14.8143 18.058 14.9444 18.0565H18.4251C18.5551 18.058 18.6793 18.1106 18.7707 18.2031C18.8621 18.2956 18.9134 18.4204 18.9134 18.5505V21.6337C18.9134 21.7632 18.8619 21.8874 18.7704 21.979C18.6788 22.0705 18.5546 22.122 18.4251 22.122ZM15.4327 21.1624H17.9538V19.0388H15.4327V21.1624Z" fill="#ffffff"></path><path d="M24.8704 22.122H21.3897C21.3256 22.122 21.2621 22.1094 21.2028 22.0848C21.1436 22.0603 21.0897 22.0243 21.0444 21.979C20.9991 21.9336 20.9631 21.8798 20.9386 21.8205C20.914 21.7613 20.9014 21.6978 20.9014 21.6337V18.5505C20.9014 18.4204 20.9526 18.2956 21.044 18.2031C21.1355 18.1106 21.2597 18.058 21.3897 18.0565H24.8704C25.001 18.0579 25.1257 18.1105 25.2181 18.2028C25.3104 18.2951 25.3629 18.4199 25.3644 18.5505V21.6337C25.3652 21.6985 25.3529 21.7628 25.3283 21.8228C25.3036 21.8828 25.2672 21.9372 25.2211 21.9827C25.175 22.0283 25.1202 22.0641 25.0599 22.0881C24.9997 22.112 24.9352 22.1235 24.8704 22.122ZM21.878 21.1624H24.3991V19.0388H21.878V21.1624Z" fill="#ffffff"></path><path d="M31.3097 22.122H27.8233C27.6938 22.122 27.5696 22.0705 27.478 21.979C27.3864 21.8874 27.335 21.7632 27.335 21.6337V18.5505C27.335 18.4204 27.3862 18.2956 27.4776 18.2031C27.5691 18.1106 27.6932 18.058 27.8233 18.0565H31.3097C31.4392 18.0594 31.5626 18.1125 31.6537 18.2047C31.7448 18.2969 31.7965 18.4209 31.798 18.5505V21.6337C31.7987 21.698 31.7866 21.7619 31.7623 21.8214C31.7381 21.881 31.7021 21.9352 31.6566 21.9807C31.6111 22.0262 31.557 22.0621 31.4974 22.0864C31.4378 22.1106 31.374 22.1227 31.3097 22.122ZM28.3116 21.1624H30.8327V19.0388H28.3116V21.1624Z" fill="#ffffff"></path><path d="M12.004 28.6178H8.52329C8.39325 28.6178 8.26846 28.5665 8.17598 28.4751C8.0835 28.3837 8.03079 28.2595 8.0293 28.1295V25.0406C8.03223 24.911 8.08541 24.7876 8.17757 24.6965C8.26974 24.6054 8.3937 24.5537 8.52329 24.5522H12.004C12.133 24.5537 12.2564 24.6056 12.3476 24.6969C12.4389 24.7882 12.4908 24.9115 12.4923 25.0406V28.1295C12.4908 28.2585 12.4389 28.3819 12.3476 28.4731C12.2564 28.5644 12.133 28.6163 12.004 28.6178ZM8.99459 27.6582H11.5157V25.5346H8.99459V27.6582Z" fill="#ffffff"></path><path d="M31.3097 28.6178H27.8233C27.6938 28.6178 27.5696 28.5663 27.478 28.4747C27.3864 28.3832 27.335 28.259 27.335 28.1295V25.0406C27.3364 24.9115 27.3884 24.7882 27.4796 24.6969C27.5709 24.6056 27.6942 24.5537 27.8233 24.5522H31.3097C31.4387 24.5537 31.562 24.6056 31.6533 24.6969C31.7446 24.7882 31.7965 24.9115 31.798 25.0406V28.1295C31.7987 28.1938 31.7866 28.2576 31.7623 28.3172C31.7381 28.3768 31.7021 28.4309 31.6566 28.4764C31.6111 28.5219 31.557 28.5579 31.4974 28.5821C31.4378 28.6064 31.374 28.6185 31.3097 28.6178ZM28.3116 27.6582H30.8327V25.5346H28.3116V27.6582Z" fill="#ffffff"></path><path d="M0.8231 35C0.611223 34.9985 0.408437 34.9137 0.258614 34.7639C0.10879 34.614 0.0239683 34.4113 0.0224814 34.1994C0.0217261 34.094 0.0419154 33.9896 0.0818827 33.8921C0.12185 33.7946 0.180792 33.7061 0.255287 33.6316C0.329782 33.5571 0.418341 33.4981 0.515818 33.4582C0.613294 33.4182 0.717751 33.398 0.8231 33.3987H4.3038V13.6389L2.65146 14.6439C2.52976 14.7174 2.39047 14.7566 2.24832 14.7575C2.1274 14.7576 2.00803 14.7302 1.89931 14.6773C1.79058 14.6243 1.69538 14.5473 1.62091 14.4521C1.54645 14.3568 1.4947 14.2458 1.4696 14.1275C1.44451 14.0092 1.44672 13.8868 1.47608 13.7695C1.53091 13.5665 1.66082 13.3919 1.83949 13.2811L19.5382 2.49268C19.6623 2.41452 19.806 2.37305 19.9527 2.37305C20.0994 2.37305 20.2431 2.41452 20.3672 2.49268L38.0603 13.2811C38.1509 13.3338 38.23 13.404 38.293 13.4878C38.3559 13.5715 38.4015 13.667 38.4269 13.7686C38.4523 13.8703 38.4571 13.976 38.4409 14.0795C38.4248 14.183 38.388 14.2823 38.3328 14.3714C38.2577 14.4874 38.1553 14.5833 38.0345 14.6506C37.9137 14.7179 37.7783 14.7546 37.6401 14.7575C37.4821 14.7642 37.3269 14.7138 37.2029 14.6155L35.5846 13.6275V33.3931H39.0483C39.2606 33.3931 39.4643 33.4774 39.6144 33.6276C39.7645 33.7777 39.8489 33.9814 39.8489 34.1937C39.8489 34.406 39.7645 34.6097 39.6144 34.7598C39.4643 34.91 39.2606 34.9943 39.0483 34.9943L0.8231 35ZM33.9834 33.3987V12.6565L19.9414 4.08823L5.90503 12.6565V33.3987H16.0405V27.4878C16.0405 26.4563 16.4503 25.4669 17.1797 24.7375C17.9091 24.0081 18.8984 23.5983 19.93 23.5983C20.9616 23.5983 21.9509 24.0081 22.6803 24.7375C23.4097 25.4669 23.8195 26.4563 23.8195 27.4878V33.3987H33.9834ZM22.2467 33.3987V27.4878C22.2173 26.8969 21.9619 26.34 21.5334 25.9322C21.1048 25.5243 20.5358 25.2969 19.9442 25.2969C19.3526 25.2969 18.7836 25.5243 18.3551 25.9322C17.9265 26.34 17.6711 26.8969 17.6417 27.4878V33.3987H22.2467Z" fill="#ffffff"></path><path d="M38.5427 12.6509C38.3978 12.6515 38.2558 12.6101 38.1339 12.5316L20.4465 1.74317C20.2852 1.64661 20.1008 1.59563 19.9128 1.59563C19.7248 1.59563 19.5403 1.64661 19.3791 1.74317L1.68599 12.5316C1.55676 12.6063 1.40933 12.6437 1.26013 12.6395C1.08811 12.6385 0.921145 12.5813 0.784627 12.4766C0.648108 12.3719 0.549518 12.2256 0.503874 12.0597C0.45823 11.8938 0.468029 11.7176 0.531772 11.5578C0.595516 11.398 0.709712 11.2635 0.85699 11.1746L18.55 0.38612C18.9592 0.140935 19.4273 0.0114136 19.9043 0.0114136C20.3813 0.0114136 20.8493 0.140935 21.2585 0.38612L26.9366 3.85545V2.4416C26.9366 2.22926 27.021 2.02563 27.1711 1.87549C27.3213 1.72534 27.5249 1.64097 27.7373 1.64097H31.8369C32.0492 1.64097 32.2528 1.72534 32.403 1.87549C32.5531 2.02563 32.6375 2.22926 32.6375 2.4416V7.33046L38.9516 11.1859C39.0433 11.2411 39.1227 11.3144 39.1852 11.4013C39.2477 11.4881 39.2918 11.5868 39.315 11.6913C39.3384 11.7875 39.342 11.8875 39.3254 11.9852C39.3088 12.0828 39.2724 12.176 39.2184 12.2591C39.1491 12.377 39.0504 12.475 38.932 12.5437C38.8137 12.6123 38.6796 12.6492 38.5427 12.6509ZM31.0533 6.35384V3.23087H28.5492V4.82642L31.0533 6.35384Z" fill="#ffffff"></path></g><defs><clipPath id="clip0_997_3899"><rect width="39.8264" height="35" fill="white"></rect></clipPath></defs></svg> 