<?xml version="1.0" encoding="UTF-8"?> <svg xmlns="http://www.w3.org/2000/svg" width="42" height="32" viewBox="0 0 42 32" fill="none"><g clip-path="url(#clip0_997_3895)"><path d="M38.2877 20.434H31.4805C31.3398 20.4324 31.2054 20.3758 31.1059 20.2763C31.0065 20.1768 30.9499 20.0424 30.9483 19.9018C30.9474 19.8317 30.9607 19.7621 30.9871 19.6971C31.0136 19.6322 31.0527 19.5732 31.1023 19.5236C31.1519 19.474 31.2109 19.4348 31.2758 19.4084C31.3408 19.3819 31.4103 19.3687 31.4805 19.3695H38.2877C38.4288 19.3695 38.5642 19.4256 38.664 19.5254C38.7638 19.6252 38.8199 19.7606 38.8199 19.9018C38.8199 20.0429 38.7638 20.1783 38.664 20.2781C38.5642 20.3779 38.4288 20.434 38.2877 20.434Z" fill="#ffffff"></path><path d="M38.2877 15.935H31.4805C31.3398 15.9334 31.2054 15.8768 31.1059 15.7774C31.0065 15.6779 30.9499 15.5435 30.9483 15.4028C30.9474 15.3327 30.9607 15.2631 30.9871 15.1982C31.0136 15.1332 31.0527 15.0743 31.1023 15.0247C31.1519 14.9751 31.2109 14.9359 31.2758 14.9094C31.3408 14.883 31.4103 14.8698 31.4805 14.8706H38.2877C38.4283 14.8722 38.5627 14.9288 38.6622 15.0283C38.7617 15.1278 38.8182 15.2622 38.8199 15.4028C38.8207 15.473 38.8075 15.5425 38.7811 15.6075C38.7546 15.6724 38.7154 15.7314 38.6658 15.781C38.6162 15.8306 38.5572 15.8697 38.4923 15.8962C38.4274 15.9226 38.3578 15.9359 38.2877 15.935Z" fill="#ffffff"></path><path d="M38.2869 29.438H10.0989C9.95721 29.438 9.82118 29.3821 9.72039 29.2825C9.6196 29.1829 9.56218 29.0475 9.56055 28.9058C9.56054 28.8354 9.57451 28.7657 9.60164 28.7007C9.62877 28.6358 9.66854 28.5768 9.71862 28.5273C9.76869 28.4778 9.8281 28.4387 9.89338 28.4123C9.95867 28.386 10.0285 28.3728 10.0989 28.3736H38.3117C38.4523 28.3752 38.5867 28.4318 38.6862 28.5313C38.7857 28.6307 38.8423 28.7652 38.8439 28.9058C38.8448 28.9781 38.8309 29.0498 38.8029 29.1164C38.7749 29.1831 38.7336 29.2433 38.6813 29.2932C38.629 29.3431 38.567 29.3818 38.4992 29.4067C38.4313 29.4316 38.3591 29.4423 38.2869 29.438Z" fill="#ffffff"></path><path d="M38.2869 24.9329H10.0989C9.95664 24.9313 9.82064 24.874 9.72001 24.7734C9.61939 24.6728 9.56215 24.5368 9.56055 24.3945C9.56135 24.3246 9.57592 24.2556 9.60342 24.1913C9.63091 24.1271 9.67078 24.0688 9.72077 24.02C9.77077 23.9712 9.8299 23.9326 9.89478 23.9067C9.95966 23.8807 10.029 23.8677 10.0989 23.8685H38.3117C38.4523 23.8701 38.5867 23.9267 38.6862 24.0262C38.7857 24.1256 38.8423 24.26 38.8439 24.4007C38.8439 24.4727 38.8294 24.544 38.8011 24.6102C38.7728 24.6765 38.7314 24.7363 38.6793 24.7861C38.6273 24.8358 38.5656 24.8745 38.4982 24.8997C38.4307 24.925 38.3588 24.9362 38.2869 24.9329Z" fill="#ffffff"></path><path d="M23.7944 20.434H10.0996C9.95896 20.4324 9.82454 20.3758 9.72507 20.2763C9.62561 20.1768 9.56903 20.0424 9.56742 19.9018C9.56659 19.8317 9.5798 19.7621 9.60625 19.6971C9.6327 19.6322 9.67186 19.5732 9.72145 19.5236C9.77103 19.474 9.83002 19.4348 9.89497 19.4084C9.95991 19.3819 10.0295 19.3687 10.0996 19.3695H23.8068C23.948 19.3695 24.0833 19.4256 24.1831 19.5254C24.283 19.6252 24.339 19.7606 24.339 19.9018C24.339 20.0429 24.283 20.1783 24.1831 20.2781C24.0833 20.3779 23.948 20.434 23.8068 20.434H23.7944Z" fill="#ffffff"></path><path d="M23.7944 15.935H10.0996C9.95896 15.9334 9.82454 15.8768 9.72507 15.7774C9.62561 15.6779 9.56903 15.5435 9.56742 15.4028C9.56659 15.3327 9.5798 15.2631 9.60625 15.1982C9.6327 15.1332 9.67186 15.0743 9.72145 15.0247C9.77103 14.9751 9.83002 14.9359 9.89497 14.9094C9.95991 14.883 10.0295 14.8698 10.0996 14.8706H23.8068C23.948 14.8706 24.0833 14.9267 24.1831 15.0265C24.283 15.1263 24.339 15.2617 24.339 15.4028C24.339 15.544 24.283 15.6793 24.1831 15.7791C24.0833 15.8789 23.948 15.935 23.8068 15.935H23.7944Z" fill="#ffffff"></path><path d="M37.3715 11.4237H14.7531C14.6124 11.4221 14.478 11.3655 14.3785 11.2661C14.279 11.1666 14.2225 11.0322 14.2208 10.8915C14.2192 10.8209 14.2318 10.7506 14.2579 10.685C14.2839 10.6193 14.323 10.5596 14.3726 10.5093C14.4223 10.4591 14.4816 10.4194 14.547 10.3925C14.6123 10.3657 14.6824 10.3523 14.7531 10.3531H37.3715C37.5036 10.3673 37.6257 10.4299 37.7144 10.5287C37.8032 10.6275 37.8523 10.7556 37.8523 10.8885C37.8523 11.0213 37.8032 11.1494 37.7144 11.2482C37.6257 11.347 37.5036 11.4095 37.3715 11.4237Z" fill="#ffffff"></path><path d="M31.4558 6.92477H22.6807C22.5401 6.92316 22.4056 6.86657 22.3061 6.76711C22.2067 6.66765 22.1501 6.53323 22.1485 6.39258C22.1476 6.32246 22.1609 6.25288 22.1873 6.18794C22.2138 6.12299 22.2529 6.064 22.3025 6.01442C22.3521 5.96483 22.4111 5.92563 22.4761 5.89918C22.541 5.87273 22.6106 5.85956 22.6807 5.86039H31.4558C31.5975 5.86038 31.7335 5.91622 31.8343 6.01585C31.9351 6.11549 31.9925 6.25086 31.9942 6.39258C31.9942 6.46299 31.9802 6.5327 31.9531 6.59767C31.9259 6.66265 31.8862 6.72162 31.8361 6.77112C31.786 6.82062 31.7266 6.85967 31.6613 6.88605C31.5961 6.91243 31.5262 6.92559 31.4558 6.92477Z" fill="#ffffff"></path><path d="M1.43536 32C1.21215 32 0.998076 31.9113 0.840242 31.7535C0.682408 31.5956 0.59375 31.3816 0.59375 31.1584C0.59375 30.9352 0.682408 30.7211 0.840242 30.5633C0.998076 30.4054 1.21215 30.3168 1.43536 30.3168H2.475V18.794L1.85616 19.153C1.74066 19.2399 1.59836 19.2837 1.45394 19.2767C1.30694 19.2758 1.1626 19.2372 1.03476 19.1646C0.906925 19.092 0.799825 18.9878 0.723681 18.8621C0.613194 18.6698 0.583087 18.4417 0.639868 18.2273C0.696649 18.0129 0.835759 17.8296 1.02694 17.7173L2.92674 16.6405L3.02577 16.591L9.6968 12.8037H9.75251L27.2903 2.82807C27.4165 2.75546 27.5594 2.71706 27.7049 2.71669C27.8849 2.71577 28.0604 2.77213 28.2062 2.87759L40.224 12.024C40.3115 12.0902 40.385 12.1731 40.4402 12.268C40.4954 12.3628 40.5312 12.4677 40.5456 12.5765C40.56 12.6853 40.5527 12.7958 40.524 12.9018C40.4954 13.0077 40.446 13.1069 40.3787 13.1936C40.3009 13.2958 40.2008 13.379 40.0861 13.4369C39.9714 13.4948 39.845 13.5258 39.7165 13.5277C39.5233 13.5338 39.3344 13.4701 39.1843 13.3483L39.1039 13.2864V30.3168H40.3416C40.5648 30.3168 40.7788 30.4054 40.9367 30.5633C41.0945 30.7211 41.1832 30.9352 41.1832 31.1584C41.1832 31.3816 41.0945 31.5956 40.9367 31.7535C40.7788 31.9113 40.5648 32 40.3416 32H1.43536ZM37.4207 30.3168V11.9992L27.6121 4.52987L10.9035 14.0166V30.3168H37.4207ZM9.20174 30.3168V14.9758L4.15825 17.8348V30.3168H9.20174Z" fill="#ffffff"></path><path d="M0.817138 16.7395C0.670135 16.7385 0.525833 16.6999 0.397996 16.6273C0.27016 16.5547 0.16306 16.4506 0.0869166 16.3249C0.0329663 16.2323 -0.00192931 16.1298 -0.0157443 16.0236C-0.0295593 15.9173 -0.0220182 15.8093 0.00646489 15.706C0.0691198 15.4976 0.208435 15.3207 0.396334 15.211L11.7025 8.79363V0.841569C11.7025 0.618359 11.7911 0.404287 11.949 0.246454C12.1068 0.0886198 12.3209 -3.82863e-05 12.5441 -3.82863e-05H18.6891C18.8002 -0.000854796 18.9103 0.0203162 19.0131 0.0622457C19.1159 0.104175 19.2094 0.16603 19.2882 0.244263C19.367 0.322496 19.4296 0.415548 19.4723 0.518063C19.5149 0.620578 19.5369 0.730524 19.5369 0.841569V4.32562L26.6535 0.290834C26.9621 0.112562 27.3121 0.0186509 27.6684 0.0185449C28.1165 0.0220999 28.5511 0.17205 28.9061 0.445543L40.9115 9.59192C41.0877 9.72639 41.2052 9.9237 41.2395 10.1427C41.2543 10.2522 41.2466 10.3636 41.2168 10.47C41.187 10.5764 41.1357 10.6756 41.0662 10.7615C40.9897 10.8632 40.8906 10.9457 40.7768 11.0026C40.6629 11.0595 40.5375 11.0892 40.4102 11.0895C40.2255 11.0897 40.0463 11.0263 39.9028 10.91L27.9159 1.76982C27.8475 1.72067 27.7651 1.69466 27.6808 1.69557C27.6136 1.69499 27.5475 1.71207 27.4889 1.74508L1.23794 16.6343C1.10803 16.7023 0.963778 16.7384 0.817138 16.7395ZM13.3733 7.82206L17.8475 5.28481V1.68321H13.3733V7.82206Z" fill="#ffffff"></path><path d="M23.782 22.9898C23.5588 22.9898 23.3448 22.9011 23.1869 22.7432C23.0291 22.5854 22.9404 22.3713 22.9404 22.1481V13.1379C22.9404 12.9147 23.0291 12.7006 23.1869 12.5428C23.3448 12.385 23.5588 12.2963 23.782 12.2963H31.4556C31.6794 12.2963 31.8941 12.3847 32.0529 12.5424C32.2117 12.7 32.3018 12.9141 32.3034 13.1379V22.1481C32.3043 22.2594 32.2828 22.3698 32.2405 22.4726C32.1981 22.5755 32.1356 22.6689 32.0566 22.7473C31.9776 22.8257 31.8838 22.8875 31.7806 22.9292C31.6774 22.9708 31.5669 22.9914 31.4556 22.9898H23.782ZM30.5892 21.3251V13.9981H24.5989V21.3251H30.5892Z" fill="#ffffff"></path></g><defs><clipPath id="clip0_997_3895"><rect width="41.2887" height="32" fill="white"></rect></clipPath></defs></svg> 