<?xml version="1.0" encoding="UTF-8"?> <svg xmlns="http://www.w3.org/2000/svg" width="37" height="35" viewBox="0 0 37 35" fill="none"><g clip-path="url(#clip0_1053_5166)"><path d="M35.4981 30.8491H34.3525V14.3287H35.4981C35.8634 14.3287 36.1622 14.0299 36.1622 13.6646C36.1622 11.9296 35.1577 10.3273 33.597 9.58847C30.019 7.87832 23.4772 4.45802 19.9241 0.747154C18.9694 -0.249051 17.1928 -0.249051 16.2381 0.747154C12.685 4.45802 6.15157 7.87832 2.56523 9.58847C1.00451 10.3356 0 11.9296 0 13.6646C0 14.0299 0.298861 14.3287 0.664137 14.3287H1.80977V30.8491H0.664137C0.298861 30.8491 0 31.148 0 31.5133C0 31.8786 0.298861 32.1774 0.664137 32.1774H35.4981C35.8634 32.1774 36.1622 31.8786 36.1622 31.5133C36.1622 31.148 35.8634 30.8491 35.4981 30.8491ZM3.13805 10.7839C6.7991 9.03226 13.4986 5.52894 17.2011 1.66034C17.6577 1.17884 18.5045 1.17884 18.9611 1.66034C22.6554 5.52894 29.3548 9.03226 33.0242 10.7839C33.9208 11.2156 34.56 12.0458 34.7676 13.0005H29.6454C25.5527 13.0005 21.6343 11.4979 18.6124 8.7666L18.5377 8.69189C18.5377 8.69189 18.463 8.64208 18.4298 8.62547C18.3966 8.60887 18.3717 8.58397 18.3385 8.56736C18.2555 8.53415 18.1724 8.51755 18.0894 8.51755C18.0064 8.51755 17.9234 8.53415 17.8404 8.56736C17.8072 8.58397 17.774 8.60887 17.7407 8.62547C17.7075 8.65038 17.666 8.65868 17.6328 8.69189L17.5581 8.7666C14.5363 11.4979 10.6262 13.0005 6.52514 13.0005H1.39469C1.60223 12.0458 2.24146 11.2156 3.13805 10.7839ZM24.4817 30.8491H11.6805L18.0811 15.8978L24.4817 30.8491ZM20.0403 17.1098L28.4998 25.5444L25.6025 30.0937L20.0403 17.1098ZM10.5515 30.0937L7.65417 25.5444L16.1136 17.1098L10.5515 30.0937ZM3.13805 14.3287H6.51684C10.4934 14.3287 14.3038 13.0005 17.4087 10.593V13.9386L6.3425 24.9798C6.11836 25.1957 6.08515 25.5444 6.25119 25.81L9.45565 30.8491H3.13805V14.3287ZM26.7066 30.8491L29.9111 25.81C30.0771 25.5444 30.0439 25.204 29.8197 24.9798L18.7453 13.9303V10.5847C21.8501 12.9922 25.6606 14.3204 29.6454 14.3204H33.0242V30.8408H26.6983L26.7066 30.8491Z" fill="#ffffff"></path><path d="M35.4981 33.6718H0.664137C0.298861 33.6718 0 33.9706 0 34.3359C0 34.7012 0.298861 35 0.664137 35H35.4981C35.8634 35 36.1622 34.7012 36.1622 34.3359C36.1622 33.9706 35.8634 33.6718 35.4981 33.6718Z" fill="#ffffff"></path></g><defs><clipPath id="clip0_1053_5166"><rect width="36.1622" height="35" fill="white"></rect></clipPath></defs></svg> 