<?xml version="1.0" encoding="UTF-8"?> <svg xmlns="http://www.w3.org/2000/svg" width="43" height="35" viewBox="0 0 43 35" fill="none"><g clip-path="url(#clip0_997_3896)"><path d="M19.2812 9.02475H15.951C15.6513 9.02475 15.3516 8.75833 15.3516 8.42532V5.09516C15.3516 4.79544 15.618 4.49573 15.951 4.49573H19.2812C19.5809 4.49573 19.8806 4.76214 19.8806 5.09516V8.42532C19.8473 8.79164 19.5809 9.02475 19.2812 9.02475ZM16.5171 7.89249H18.6817V5.72789H16.5171V7.89249Z" fill="#ffffff"></path><path d="M25.9091 9.02475H22.5789C22.2792 9.02475 21.9795 8.75833 21.9795 8.42532V5.09516C21.9795 4.79544 22.2459 4.49573 22.5789 4.49573H25.9091C26.2088 4.49573 26.5085 4.76214 26.5085 5.09516V8.42532C26.5085 8.79164 26.2421 9.02475 25.9091 9.02475ZM23.145 7.89249H25.3097V5.72789H23.145V7.89249Z" fill="#ffffff"></path><path d="M19.2812 15.8515H15.951C15.6513 15.8515 15.3516 15.5851 15.3516 15.2521V11.9219C15.3516 11.6222 15.618 11.3225 15.951 11.3225H19.2812C19.5809 11.3225 19.8806 11.5889 19.8806 11.9219V15.2521C19.8473 15.5851 19.5809 15.8515 19.2812 15.8515ZM16.5171 14.686H18.6817V12.5214H16.5171V14.686Z" fill="#ffffff"></path><path d="M25.9091 15.8515H22.5789C22.2792 15.8515 21.9795 15.5851 21.9795 15.2521V11.9219C21.9795 11.6222 22.2459 11.3225 22.5789 11.3225H25.9091C26.2088 11.3225 26.5085 11.5889 26.5085 11.9219V15.2521C26.5085 15.5851 26.2421 15.8515 25.9091 15.8515ZM23.145 14.686H25.3097V12.5214H23.145V14.686Z" fill="#ffffff"></path><path d="M34.9667 13.4872H31.6365C31.3368 13.4872 31.0371 13.2207 31.0371 12.8877V9.55756C31.0371 9.25784 31.3035 8.95813 31.6365 8.95813H34.9667C35.2664 8.95813 35.5661 9.22454 35.5661 9.55756V12.8877C35.5328 13.2207 35.2664 13.4872 34.9667 13.4872ZM32.2027 12.3216H34.3673V10.157H32.2027V12.3216Z" fill="#ffffff"></path><path d="M34.9667 21.9124H31.6365C31.3368 21.9124 31.0371 21.646 31.0371 21.313V17.9829C31.0371 17.6831 31.3035 17.3834 31.6365 17.3834H34.9667C35.2664 17.3834 35.5661 17.6498 35.5661 17.9829V21.313C35.5328 21.646 35.2664 21.9124 34.9667 21.9124ZM32.2027 20.7469H34.3673V18.5823H32.2027V20.7469Z" fill="#ffffff"></path><path d="M34.9667 30.3377H31.6365C31.3368 30.3377 31.0371 30.0713 31.0371 29.7383V26.4081C31.0371 26.1084 31.3035 25.8087 31.6365 25.8087H34.9667C35.2664 25.8087 35.5661 26.0751 35.5661 26.4081V29.7383C35.5328 30.0713 35.2664 30.3377 34.9667 30.3377ZM32.2027 29.1722H34.3673V27.0076H32.2027V29.1722Z" fill="#ffffff"></path><path d="M0.83254 35C0.366318 35 0 34.6337 0 34.1675C0 33.7012 0.366318 33.3349 0.83254 33.3349H3.46337V6.52712C3.46337 6.06089 3.82969 5.69458 4.29591 5.69458H11.922V0.83254C11.9553 0.366318 12.3216 0 12.7878 0H29.039C29.5052 0 29.8716 0.366318 29.8716 0.83254V5.66128H37.4976C37.9638 5.66128 38.3302 6.02759 38.3302 6.49382V33.3016H41.2607C41.7269 33.3016 42.0932 33.6679 42.0932 34.1342C42.0932 34.6004 41.7269 34.9667 41.2607 34.9667H0.83254V35ZM36.6984 33.3016V7.32636H29.8716V33.3016H36.6984ZM28.2065 33.3016V1.66508H13.6204V33.3016H16.5509V24.6765C16.5509 24.2103 16.9172 23.844 17.3834 23.844H24.4101C24.8763 23.844 25.2426 24.2103 25.2426 24.6765V33.3016H28.2065ZM23.6108 33.3016V25.509H18.2493V33.3016H23.6108ZM11.9553 33.3016V7.32636H5.16175V33.3016H11.9553Z" fill="#ffffff"></path><path d="M10.2235 13.4872H6.89338C6.59366 13.4872 6.29395 13.2207 6.29395 12.8877V9.55756C6.29395 9.25784 6.56036 8.95813 6.89338 8.95813H10.2235C10.5233 8.95813 10.823 9.22454 10.823 9.55756V12.8877C10.823 13.2207 10.5566 13.4872 10.2235 13.4872ZM7.4595 12.3216H9.65741V10.157H7.4928V12.3216H7.4595Z" fill="#ffffff"></path><path d="M10.2235 21.9124H6.89338C6.59366 21.9124 6.29395 21.646 6.29395 21.313V17.9829C6.29395 17.6831 6.56036 17.3834 6.89338 17.3834H10.2235C10.5233 17.3834 10.823 17.6498 10.823 17.9829V21.313C10.823 21.646 10.5566 21.9124 10.2235 21.9124ZM7.4595 20.7469H9.65741V18.5823H7.4928V20.7469H7.4595Z" fill="#ffffff"></path><path d="M10.2235 30.3377H6.89338C6.59366 30.3377 6.29395 30.0713 6.29395 29.7383V26.4081C6.29395 26.1084 6.56036 25.8087 6.89338 25.8087H10.2235C10.5233 25.8087 10.823 26.0751 10.823 26.4081V29.7383C10.823 30.0713 10.5566 30.3377 10.2235 30.3377ZM7.4595 29.1722H9.65741V27.0076H7.4928V29.1722H7.4595Z" fill="#ffffff"></path><path d="M19.2812 22.6451H15.951C15.6513 22.6451 15.3516 22.3787 15.3516 22.0457V18.7155C15.3516 18.4158 15.618 18.1161 15.951 18.1161H19.2812C19.5809 18.1161 19.8806 18.3825 19.8806 18.7155V22.0457C19.8473 22.3787 19.5809 22.6451 19.2812 22.6451ZM16.5171 21.4796H18.6817V19.3149H16.5171V21.4796Z" fill="#ffffff"></path><path d="M25.9091 22.6451H22.5789C22.2792 22.6451 21.9795 22.3787 21.9795 22.0457V18.7155C21.9795 18.4158 22.2459 18.1161 22.5789 18.1161H25.9091C26.2088 18.1161 26.5085 18.3825 26.5085 18.7155V22.0457C26.5085 22.3787 26.2421 22.6451 25.9091 22.6451ZM23.145 21.4796H25.3097V19.3149H23.145V21.4796Z" fill="#ffffff"></path></g><defs><clipPath id="clip0_997_3896"><rect width="42.1265" height="35" fill="white"></rect></clipPath></defs></svg> 