<?xml version="1.0" encoding="UTF-8"?> <svg xmlns="http://www.w3.org/2000/svg" width="1788" height="640" viewBox="0 0 1788 640" fill="none"><rect x="1788" y="640" width="1789" height="640" transform="rotate(180 1788 640)" fill="url(#paint0_linear_2651_1301)"></rect><path d="M142.75 36.8971L193.104 65.9689C196.662 68.0232 198.854 71.8196 198.854 75.9282V134.072C198.854 138.18 196.662 141.977 193.104 144.031L142.75 173.103C139.192 175.157 134.808 175.157 131.25 173.103L80.8962 144.031C77.3381 141.977 75.1462 138.18 75.1462 134.072V75.9282C75.1462 71.8196 77.3381 68.0232 80.8962 65.9689L131.25 36.8971C134.808 34.8428 139.192 34.8428 142.75 36.8971Z" stroke="#3366FF" stroke-opacity="0.3"></path><path d="M833.75 36.8971L884.104 65.9689C887.662 68.0232 889.854 71.8196 889.854 75.9282V134.072C889.854 138.18 887.662 141.977 884.104 144.031L833.75 173.103C830.192 175.157 825.808 175.157 822.25 173.103L771.896 144.031C768.338 141.977 766.146 138.18 766.146 134.072V75.9282C766.146 71.8196 768.338 68.0232 771.896 65.9689L822.25 36.8971C825.808 34.8428 830.192 34.8428 833.75 36.8971Z" stroke="#3366FF" stroke-opacity="0.3"></path><path d="M280.75 36.8971L331.104 65.9689C334.662 68.0232 336.854 71.8196 336.854 75.9282V134.072C336.854 138.18 334.662 141.977 331.104 144.031L280.75 173.103C277.192 175.157 272.808 175.157 269.25 173.103L218.896 144.031C215.338 141.977 213.146 138.18 213.146 134.072V75.9282C213.146 71.8196 215.338 68.0232 218.896 65.9689L269.25 36.8971C272.808 34.8428 277.192 34.8428 280.75 36.8971Z" stroke="#3366FF" stroke-opacity="0.3"></path><path d="M971.75 36.8971L1022.1 65.9689C1025.66 68.0232 1027.85 71.8196 1027.85 75.9282V134.072C1027.85 138.18 1025.66 141.977 1022.1 144.031L971.75 173.103C968.192 175.157 963.808 175.157 960.25 173.103L909.896 144.031C906.338 141.977 904.146 138.18 904.146 134.072V75.9282C904.146 71.8196 906.338 68.0232 909.896 65.9689L960.25 36.8971C963.808 34.8428 968.192 34.8428 971.75 36.8971Z" stroke="#3366FF" stroke-opacity="0.3"></path><path d="M418.75 36.8971L469.104 65.9689C472.662 68.0232 474.854 71.8196 474.854 75.9282V134.072C474.854 138.18 472.662 141.977 469.104 144.031L418.75 173.103C415.192 175.157 410.808 175.157 407.25 173.103L356.896 144.031C353.338 141.977 351.146 138.18 351.146 134.072V75.9282C351.146 71.8196 353.338 68.0232 356.896 65.9689L407.25 36.8971C410.808 34.8428 415.192 34.8428 418.75 36.8971Z" stroke="#3366FF" stroke-opacity="0.3"></path><path d="M1109.75 36.8971L1160.1 65.9689C1163.66 68.0232 1165.85 71.8196 1165.85 75.9282V134.072C1165.85 138.18 1163.66 141.977 1160.1 144.031L1109.75 173.103C1106.19 175.157 1101.81 175.157 1098.25 173.103L1047.9 144.031C1044.34 141.977 1042.15 138.18 1042.15 134.072V75.9282C1042.15 71.8196 1044.34 68.0232 1047.9 65.9689L1098.25 36.8971C1101.81 34.8428 1106.19 34.8428 1109.75 36.8971Z" stroke="#3366FF" stroke-opacity="0.3"></path><path d="M1521.75 36.8971L1572.1 65.9689C1575.66 68.0232 1577.85 71.8196 1577.85 75.9282V134.072C1577.85 138.18 1575.66 141.977 1572.1 144.031L1521.75 173.103C1518.19 175.157 1513.81 175.157 1510.25 173.103L1459.9 144.031C1456.34 141.977 1454.15 138.18 1454.15 134.072V75.9282C1454.15 71.8196 1456.34 68.0232 1459.9 65.9689L1510.25 36.8971C1513.81 34.8428 1518.19 34.8428 1521.75 36.8971Z" stroke="#3366FF" stroke-opacity="0.3"></path><path d="M555.75 36.8971L606.104 65.9689C609.662 68.0232 611.854 71.8196 611.854 75.9282V134.072C611.854 138.18 609.662 141.977 606.104 144.031L555.75 173.103C552.192 175.157 547.808 175.157 544.25 173.103L493.896 144.031C490.338 141.977 488.146 138.18 488.146 134.072V75.9282C488.146 71.8196 490.338 68.0232 493.896 65.9689L544.25 36.8971C547.808 34.8428 552.192 34.8428 555.75 36.8971Z" stroke="#3366FF" stroke-opacity="0.3"></path><path d="M1246.75 36.8971L1297.1 65.9689C1300.66 68.0232 1302.85 71.8196 1302.85 75.9282V134.072C1302.85 138.18 1300.66 141.977 1297.1 144.031L1246.75 173.103C1243.19 175.157 1238.81 175.157 1235.25 173.103L1184.9 144.031C1181.34 141.977 1179.15 138.18 1179.15 134.072V75.9282C1179.15 71.8196 1181.34 68.0232 1184.9 65.9689L1235.25 36.8971C1238.81 34.8428 1243.19 34.8428 1246.75 36.8971Z" stroke="#3366FF" stroke-opacity="0.3"></path><path d="M1658.75 36.8971L1709.1 65.9689C1712.66 68.0232 1714.85 71.8196 1714.85 75.9282V134.072C1714.85 138.18 1712.66 141.977 1709.1 144.031L1658.75 173.103C1655.19 175.157 1650.81 175.157 1647.25 173.103L1596.9 144.031C1593.34 141.977 1591.15 138.18 1591.15 134.072V75.9282C1591.15 71.8196 1593.34 68.0232 1596.9 65.9689L1647.25 36.8971C1650.81 34.8428 1655.19 34.8428 1658.75 36.8971Z" stroke="#3366FF" stroke-opacity="0.3"></path><path d="M693.75 36.8971L744.104 65.9689C747.662 68.0232 749.854 71.8196 749.854 75.9282V134.072C749.854 138.18 747.662 141.977 744.104 144.031L693.75 173.103C690.192 175.157 685.808 175.157 682.25 173.103L631.896 144.031C628.338 141.977 626.146 138.18 626.146 134.072V75.9282C626.146 71.8196 628.338 68.0232 631.896 65.9689L682.25 36.8971C685.808 34.8428 690.192 34.8428 693.75 36.8971Z" stroke="#3366FF" stroke-opacity="0.3"></path><path d="M1384.75 36.8971L1435.1 65.9689C1438.66 68.0232 1440.85 71.8196 1440.85 75.9282V134.072C1440.85 138.18 1438.66 141.977 1435.1 144.031L1384.75 173.103C1381.19 175.157 1376.81 175.157 1373.25 173.103L1322.9 144.031C1319.34 141.977 1317.15 138.18 1317.15 134.072V75.9282C1317.15 71.8196 1319.34 68.0232 1322.9 65.9689L1373.25 36.8971C1376.81 34.8428 1381.19 34.8428 1384.75 36.8971Z" stroke="#3366FF" stroke-opacity="0.3"></path><path d="M1796.75 36.8971L1847.1 65.9689C1850.66 68.0232 1852.85 71.8196 1852.85 75.9282V134.072C1852.85 138.18 1850.66 141.977 1847.1 144.031L1796.75 173.103C1793.19 175.157 1788.81 175.157 1785.25 173.103L1734.9 144.031C1731.34 141.977 1729.15 138.18 1729.15 134.072V75.9282C1729.15 71.8196 1731.34 68.0232 1734.9 65.9689L1785.25 36.8971C1788.81 34.8428 1793.19 34.8428 1796.75 36.8971Z" stroke="#3366FF" stroke-opacity="0.3"></path><path d="M5.75 36.8971L56.1038 65.9689C59.6619 68.0232 61.8538 71.8196 61.8538 75.9282V134.072C61.8538 138.18 59.6619 141.977 56.1038 144.031L5.75 173.103C2.19189 175.157 -2.19189 175.157 -5.75 173.103L-56.1038 144.031C-59.6619 141.977 -61.8538 138.18 -61.8538 134.072V75.9282C-61.8538 71.8196 -59.6619 68.0232 -56.1038 65.9689L-5.75 36.8971C-2.19189 34.8428 2.19189 34.8428 5.75 36.8971Z" stroke="#3366FF" stroke-opacity="0.3"></path><path d="M212.75 160.897L263.104 189.969C266.662 192.023 268.854 195.82 268.854 199.928V258.072C268.854 262.18 266.662 265.977 263.104 268.031L212.75 297.103C209.192 299.157 204.808 299.157 201.25 297.103L150.896 268.031C147.338 265.977 145.146 262.18 145.146 258.072V199.928C145.146 195.82 147.338 192.023 150.896 189.969L201.25 160.897C204.808 158.843 209.192 158.843 212.75 160.897Z" stroke="#3366FF" stroke-opacity="0.25"></path><path d="M903.75 160.897L954.104 189.969C957.662 192.023 959.854 195.82 959.854 199.928V258.072C959.854 262.18 957.662 265.977 954.104 268.031L903.75 297.103C900.192 299.157 895.808 299.157 892.25 297.103L841.896 268.031C838.338 265.977 836.146 262.18 836.146 258.072V199.928C836.146 195.82 838.338 192.023 841.896 189.969L892.25 160.897C895.808 158.843 900.192 158.843 903.75 160.897Z" stroke="#3366FF" stroke-opacity="0.25"></path><path d="M350.75 160.897L401.104 189.969C404.662 192.023 406.854 195.82 406.854 199.928V258.072C406.854 262.18 404.662 265.977 401.104 268.031L350.75 297.103C347.192 299.157 342.808 299.157 339.25 297.103L288.896 268.031C285.338 265.977 283.146 262.18 283.146 258.072V199.928C283.146 195.82 285.338 192.023 288.896 189.969L339.25 160.897C342.808 158.843 347.192 158.843 350.75 160.897Z" stroke="#3366FF" stroke-opacity="0.25"></path><path d="M1041.75 160.897L1092.1 189.969C1095.66 192.023 1097.85 195.82 1097.85 199.928V258.072C1097.85 262.18 1095.66 265.977 1092.1 268.031L1041.75 297.103C1038.19 299.157 1033.81 299.157 1030.25 297.103L979.896 268.031C976.338 265.977 974.146 262.18 974.146 258.072V199.928C974.146 195.82 976.338 192.023 979.896 189.969L1030.25 160.897C1033.81 158.843 1038.19 158.843 1041.75 160.897Z" stroke="#3366FF" stroke-opacity="0.25"></path><path d="M488.75 160.897L539.104 189.969C542.662 192.023 544.854 195.82 544.854 199.928V258.072C544.854 262.18 542.662 265.977 539.104 268.031L488.75 297.103C485.192 299.157 480.808 299.157 477.25 297.103L426.896 268.031C423.338 265.977 421.146 262.18 421.146 258.072V199.928C421.146 195.82 423.338 192.023 426.896 189.969L477.25 160.897C480.808 158.843 485.192 158.843 488.75 160.897Z" stroke="#3366FF" stroke-opacity="0.25"></path><path d="M1179.75 160.897L1230.1 189.969C1233.66 192.023 1235.85 195.82 1235.85 199.928V258.072C1235.85 262.18 1233.66 265.977 1230.1 268.031L1179.75 297.103C1176.19 299.157 1171.81 299.157 1168.25 297.103L1117.9 268.031C1114.34 265.977 1112.15 262.18 1112.15 258.072V199.928C1112.15 195.82 1114.34 192.023 1117.9 189.969L1168.25 160.897C1171.81 158.843 1176.19 158.843 1179.75 160.897Z" stroke="#3366FF" stroke-opacity="0.25"></path><path d="M1591.75 160.897L1642.1 189.969C1645.66 192.023 1647.85 195.82 1647.85 199.928V258.072C1647.85 262.18 1645.66 265.977 1642.1 268.031L1591.75 297.103C1588.19 299.157 1583.81 299.157 1580.25 297.103L1529.9 268.031C1526.34 265.977 1524.15 262.18 1524.15 258.072V199.928C1524.15 195.82 1526.34 192.023 1529.9 189.969L1580.25 160.897C1583.81 158.843 1588.19 158.843 1591.75 160.897Z" stroke="#3366FF" stroke-opacity="0.25"></path><path d="M625.75 160.897L676.104 189.969C679.662 192.023 681.854 195.82 681.854 199.928V258.072C681.854 262.18 679.662 265.977 676.104 268.031L625.75 297.103C622.192 299.157 617.808 299.157 614.25 297.103L563.896 268.031C560.338 265.977 558.146 262.18 558.146 258.072V199.928C558.146 195.82 560.338 192.023 563.896 189.969L614.25 160.897C617.808 158.843 622.192 158.843 625.75 160.897Z" stroke="#3366FF" stroke-opacity="0.25"></path><path d="M1316.75 160.897L1367.1 189.969C1370.66 192.023 1372.85 195.82 1372.85 199.928V258.072C1372.85 262.18 1370.66 265.977 1367.1 268.031L1316.75 297.103C1313.19 299.157 1308.81 299.157 1305.25 297.103L1254.9 268.031C1251.34 265.977 1249.15 262.18 1249.15 258.072V199.928C1249.15 195.82 1251.34 192.023 1254.9 189.969L1305.25 160.897C1308.81 158.843 1313.19 158.843 1316.75 160.897Z" stroke="#3366FF" stroke-opacity="0.25"></path><path d="M1728.75 160.897L1779.1 189.969C1782.66 192.023 1784.85 195.82 1784.85 199.928V258.072C1784.85 262.18 1782.66 265.977 1779.1 268.031L1728.75 297.103C1725.19 299.157 1720.81 299.157 1717.25 297.103L1666.9 268.031C1663.34 265.977 1661.15 262.18 1661.15 258.072V199.928C1661.15 195.82 1663.34 192.023 1666.9 189.969L1717.25 160.897C1720.81 158.843 1725.19 158.843 1728.75 160.897Z" stroke="#3366FF" stroke-opacity="0.25"></path><path d="M763.75 160.897L814.104 189.969C817.662 192.023 819.854 195.82 819.854 199.928V258.072C819.854 262.18 817.662 265.977 814.104 268.031L763.75 297.103C760.192 299.157 755.808 299.157 752.25 297.103L701.896 268.031C698.338 265.977 696.146 262.18 696.146 258.072V199.928C696.146 195.82 698.338 192.023 701.896 189.969L752.25 160.897C755.808 158.843 760.192 158.843 763.75 160.897Z" stroke="#3366FF" stroke-opacity="0.25"></path><path d="M1454.75 160.897L1505.1 189.969C1508.66 192.023 1510.85 195.82 1510.85 199.928V258.072C1510.85 262.18 1508.66 265.977 1505.1 268.031L1454.75 297.103C1451.19 299.157 1446.81 299.157 1443.25 297.103L1392.9 268.031C1389.34 265.977 1387.15 262.18 1387.15 258.072V199.928C1387.15 195.82 1389.34 192.023 1392.9 189.969L1443.25 160.897C1446.81 158.843 1451.19 158.843 1454.75 160.897Z" stroke="#3366FF" stroke-opacity="0.25"></path><path d="M75.75 160.897L126.104 189.969C129.662 192.023 131.854 195.82 131.854 199.928V258.072C131.854 262.18 129.662 265.977 126.104 268.031L75.75 297.103C72.1919 299.157 67.8081 299.157 64.25 297.103L13.8962 268.031C10.3381 265.977 8.14617 262.18 8.14617 258.072V199.928C8.14617 195.82 10.3381 192.023 13.8962 189.969L64.25 160.897C67.8081 158.843 72.1919 158.843 75.75 160.897Z" stroke="#3366FF" stroke-opacity="0.25"></path><path d="M212.75 402.897L263.104 431.969C266.662 434.023 268.854 437.82 268.854 441.928V500.072C268.854 504.18 266.662 507.977 263.104 510.031L212.75 539.103C209.192 541.157 204.808 541.157 201.25 539.103L150.896 510.031C147.338 507.977 145.146 504.18 145.146 500.072V441.928C145.146 437.82 147.338 434.023 150.896 431.969L201.25 402.897C204.808 400.843 209.192 400.843 212.75 402.897Z" stroke="#3366FF" stroke-opacity="0.1"></path><path d="M903.75 402.897L954.104 431.969C957.662 434.023 959.854 437.82 959.854 441.928V500.072C959.854 504.18 957.662 507.977 954.104 510.031L903.75 539.103C900.192 541.157 895.808 541.157 892.25 539.103L841.896 510.031C838.338 507.977 836.146 504.18 836.146 500.072V441.928C836.146 437.82 838.338 434.023 841.896 431.969L892.25 402.897C895.808 400.843 900.192 400.843 903.75 402.897Z" stroke="#3366FF" stroke-opacity="0.1"></path><path d="M350.75 402.897L401.104 431.969C404.662 434.023 406.854 437.82 406.854 441.928V500.072C406.854 504.18 404.662 507.977 401.104 510.031L350.75 539.103C347.192 541.157 342.808 541.157 339.25 539.103L288.896 510.031C285.338 507.977 283.146 504.18 283.146 500.072V441.928C283.146 437.82 285.338 434.023 288.896 431.969L339.25 402.897C342.808 400.843 347.192 400.843 350.75 402.897Z" stroke="#3366FF" stroke-opacity="0.1"></path><path d="M1041.75 402.897L1092.1 431.969C1095.66 434.023 1097.85 437.82 1097.85 441.928V500.072C1097.85 504.18 1095.66 507.977 1092.1 510.031L1041.75 539.103C1038.19 541.157 1033.81 541.157 1030.25 539.103L979.896 510.031C976.338 507.977 974.146 504.18 974.146 500.072V441.928C974.146 437.82 976.338 434.023 979.896 431.969L1030.25 402.897C1033.81 400.843 1038.19 400.843 1041.75 402.897Z" stroke="#3366FF" stroke-opacity="0.1"></path><path d="M488.75 402.897L539.104 431.969C542.662 434.023 544.854 437.82 544.854 441.928V500.072C544.854 504.18 542.662 507.977 539.104 510.031L488.75 539.103C485.192 541.157 480.808 541.157 477.25 539.103L426.896 510.031C423.338 507.977 421.146 504.18 421.146 500.072V441.928C421.146 437.82 423.338 434.023 426.896 431.969L477.25 402.897C480.808 400.843 485.192 400.843 488.75 402.897Z" stroke="#3366FF" stroke-opacity="0.1"></path><path d="M1179.75 402.897L1230.1 431.969C1233.66 434.023 1235.85 437.82 1235.85 441.928V500.072C1235.85 504.18 1233.66 507.977 1230.1 510.031L1179.75 539.103C1176.19 541.157 1171.81 541.157 1168.25 539.103L1117.9 510.031C1114.34 507.977 1112.15 504.18 1112.15 500.072V441.928C1112.15 437.82 1114.34 434.023 1117.9 431.969L1168.25 402.897C1171.81 400.843 1176.19 400.843 1179.75 402.897Z" stroke="#3366FF" stroke-opacity="0.1"></path><path d="M1591.75 402.897L1642.1 431.969C1645.66 434.023 1647.85 437.82 1647.85 441.928V500.072C1647.85 504.18 1645.66 507.977 1642.1 510.031L1591.75 539.103C1588.19 541.157 1583.81 541.157 1580.25 539.103L1529.9 510.031C1526.34 507.977 1524.15 504.18 1524.15 500.072V441.928C1524.15 437.82 1526.34 434.023 1529.9 431.969L1580.25 402.897C1583.81 400.843 1588.19 400.843 1591.75 402.897Z" stroke="#3366FF" stroke-opacity="0.1"></path><path d="M625.75 402.897L676.104 431.969C679.662 434.023 681.854 437.82 681.854 441.928V500.072C681.854 504.18 679.662 507.977 676.104 510.031L625.75 539.103C622.192 541.157 617.808 541.157 614.25 539.103L563.896 510.031C560.338 507.977 558.146 504.18 558.146 500.072V441.928C558.146 437.82 560.338 434.023 563.896 431.969L614.25 402.897C617.808 400.843 622.192 400.843 625.75 402.897Z" stroke="#3366FF" stroke-opacity="0.1"></path><path d="M1316.75 402.897L1367.1 431.969C1370.66 434.023 1372.85 437.82 1372.85 441.928V500.072C1372.85 504.18 1370.66 507.977 1367.1 510.031L1316.75 539.103C1313.19 541.157 1308.81 541.157 1305.25 539.103L1254.9 510.031C1251.34 507.977 1249.15 504.18 1249.15 500.072V441.928C1249.15 437.82 1251.34 434.023 1254.9 431.969L1305.25 402.897C1308.81 400.843 1313.19 400.843 1316.75 402.897Z" stroke="#3366FF" stroke-opacity="0.1"></path><path d="M1728.75 402.897L1779.1 431.969C1782.66 434.023 1784.85 437.82 1784.85 441.928V500.072C1784.85 504.18 1782.66 507.977 1779.1 510.031L1728.75 539.103C1725.19 541.157 1720.81 541.157 1717.25 539.103L1666.9 510.031C1663.34 507.977 1661.15 504.18 1661.15 500.072V441.928C1661.15 437.82 1663.34 434.023 1666.9 431.969L1717.25 402.897C1720.81 400.843 1725.19 400.843 1728.75 402.897Z" stroke="#3366FF" stroke-opacity="0.1"></path><path d="M763.75 402.897L814.104 431.969C817.662 434.023 819.854 437.82 819.854 441.928V500.072C819.854 504.18 817.662 507.977 814.104 510.031L763.75 539.103C760.192 541.157 755.808 541.157 752.25 539.103L701.896 510.031C698.338 507.977 696.146 504.18 696.146 500.072V441.928C696.146 437.82 698.338 434.023 701.896 431.969L752.25 402.897C755.808 400.843 760.192 400.843 763.75 402.897Z" stroke="#3366FF" stroke-opacity="0.1"></path><path d="M1454.75 402.897L1505.1 431.969C1508.66 434.023 1510.85 437.82 1510.85 441.928V500.072C1510.85 504.18 1508.66 507.977 1505.1 510.031L1454.75 539.103C1451.19 541.157 1446.81 541.157 1443.25 539.103L1392.9 510.031C1389.34 507.977 1387.15 504.18 1387.15 500.072V441.928C1387.15 437.82 1389.34 434.023 1392.9 431.969L1443.25 402.897C1446.81 400.843 1451.19 400.843 1454.75 402.897Z" stroke="#3366FF" stroke-opacity="0.1"></path><path d="M75.75 402.897L126.104 431.969C129.662 434.023 131.854 437.82 131.854 441.928V500.072C131.854 504.18 129.662 507.977 126.104 510.031L75.75 539.103C72.1919 541.157 67.8081 541.157 64.25 539.103L13.8962 510.031C10.3381 507.977 8.14617 504.18 8.14617 500.072V441.928C8.14617 437.82 10.3381 434.023 13.8962 431.969L64.25 402.897C67.8081 400.843 72.1919 400.843 75.75 402.897Z" stroke="#3366FF" stroke-opacity="0.1"></path><path d="M145.75 284.897L196.104 313.969C199.662 316.023 201.854 319.82 201.854 323.928V382.072C201.854 386.18 199.662 389.977 196.104 392.031L145.75 421.103C142.192 423.157 137.808 423.157 134.25 421.103L83.8962 392.031C80.3381 389.977 78.1462 386.18 78.1462 382.072V323.928C78.1462 319.82 80.3381 316.023 83.8962 313.969L134.25 284.897C137.808 282.843 142.192 282.843 145.75 284.897Z" stroke="#3366FF" stroke-opacity="0.15"></path><path d="M836.75 284.897L887.104 313.969C890.662 316.023 892.854 319.82 892.854 323.928V382.072C892.854 386.18 890.662 389.977 887.104 392.031L836.75 421.103C833.192 423.157 828.808 423.157 825.25 421.103L774.896 392.031C771.338 389.977 769.146 386.18 769.146 382.072V323.928C769.146 319.82 771.338 316.023 774.896 313.969L825.25 284.897C828.808 282.843 833.192 282.843 836.75 284.897Z" stroke="#3366FF" stroke-opacity="0.15"></path><path d="M283.75 284.897L334.104 313.969C337.662 316.023 339.854 319.82 339.854 323.928V382.072C339.854 386.18 337.662 389.977 334.104 392.031L283.75 421.103C280.192 423.157 275.808 423.157 272.25 421.103L221.896 392.031C218.338 389.977 216.146 386.18 216.146 382.072V323.928C216.146 319.82 218.338 316.023 221.896 313.969L272.25 284.897C275.808 282.843 280.192 282.843 283.75 284.897Z" stroke="#3366FF" stroke-opacity="0.15"></path><path d="M974.75 284.897L1025.1 313.969C1028.66 316.023 1030.85 319.82 1030.85 323.928V382.072C1030.85 386.18 1028.66 389.977 1025.1 392.031L974.75 421.103C971.192 423.157 966.808 423.157 963.25 421.103L912.896 392.031C909.338 389.977 907.146 386.18 907.146 382.072V323.928C907.146 319.82 909.338 316.023 912.896 313.969L963.25 284.897C966.808 282.843 971.192 282.843 974.75 284.897Z" stroke="#3366FF" stroke-opacity="0.15"></path><path d="M421.75 284.897L472.104 313.969C475.662 316.023 477.854 319.82 477.854 323.928V382.072C477.854 386.18 475.662 389.977 472.104 392.031L421.75 421.103C418.192 423.157 413.808 423.157 410.25 421.103L359.896 392.031C356.338 389.977 354.146 386.18 354.146 382.072V323.928C354.146 319.82 356.338 316.023 359.896 313.969L410.25 284.897C413.808 282.843 418.192 282.843 421.75 284.897Z" stroke="#3366FF" stroke-opacity="0.15"></path><path d="M1112.75 284.897L1163.1 313.969C1166.66 316.023 1168.85 319.82 1168.85 323.928V382.072C1168.85 386.18 1166.66 389.977 1163.1 392.031L1112.75 421.103C1109.19 423.157 1104.81 423.157 1101.25 421.103L1050.9 392.031C1047.34 389.977 1045.15 386.18 1045.15 382.072V323.928C1045.15 319.82 1047.34 316.023 1050.9 313.969L1101.25 284.897C1104.81 282.843 1109.19 282.843 1112.75 284.897Z" stroke="#3366FF" stroke-opacity="0.15"></path><path d="M1524.75 284.897L1575.1 313.969C1578.66 316.023 1580.85 319.82 1580.85 323.928V382.072C1580.85 386.18 1578.66 389.977 1575.1 392.031L1524.75 421.103C1521.19 423.157 1516.81 423.157 1513.25 421.103L1462.9 392.031C1459.34 389.977 1457.15 386.18 1457.15 382.072V323.928C1457.15 319.82 1459.34 316.023 1462.9 313.969L1513.25 284.897C1516.81 282.843 1521.19 282.843 1524.75 284.897Z" stroke="#3366FF" stroke-opacity="0.15"></path><path d="M558.75 284.897L609.104 313.969C612.662 316.023 614.854 319.82 614.854 323.928V382.072C614.854 386.18 612.662 389.977 609.104 392.031L558.75 421.103C555.192 423.157 550.808 423.157 547.25 421.103L496.896 392.031C493.338 389.977 491.146 386.18 491.146 382.072V323.928C491.146 319.82 493.338 316.023 496.896 313.969L547.25 284.897C550.808 282.843 555.192 282.843 558.75 284.897Z" stroke="#3366FF" stroke-opacity="0.15"></path><path d="M1249.75 284.897L1300.1 313.969C1303.66 316.023 1305.85 319.82 1305.85 323.928V382.072C1305.85 386.18 1303.66 389.977 1300.1 392.031L1249.75 421.103C1246.19 423.157 1241.81 423.157 1238.25 421.103L1187.9 392.031C1184.34 389.977 1182.15 386.18 1182.15 382.072V323.928C1182.15 319.82 1184.34 316.023 1187.9 313.969L1238.25 284.897C1241.81 282.843 1246.19 282.843 1249.75 284.897Z" stroke="#3366FF" stroke-opacity="0.15"></path><path d="M1661.75 284.897L1712.1 313.969C1715.66 316.023 1717.85 319.82 1717.85 323.928V382.072C1717.85 386.18 1715.66 389.977 1712.1 392.031L1661.75 421.103C1658.19 423.157 1653.81 423.157 1650.25 421.103L1599.9 392.031C1596.34 389.977 1594.15 386.18 1594.15 382.072V323.928C1594.15 319.82 1596.34 316.023 1599.9 313.969L1650.25 284.897C1653.81 282.843 1658.19 282.843 1661.75 284.897Z" stroke="#3366FF" stroke-opacity="0.15"></path><path d="M696.75 284.897L747.104 313.969C750.662 316.023 752.854 319.82 752.854 323.928V382.072C752.854 386.18 750.662 389.977 747.104 392.031L696.75 421.103C693.192 423.157 688.808 423.157 685.25 421.103L634.896 392.031C631.338 389.977 629.146 386.18 629.146 382.072V323.928C629.146 319.82 631.338 316.023 634.896 313.969L685.25 284.897C688.808 282.843 693.192 282.843 696.75 284.897Z" stroke="#3366FF" stroke-opacity="0.15"></path><path d="M1387.75 284.897L1438.1 313.969C1441.66 316.023 1443.85 319.82 1443.85 323.928V382.072C1443.85 386.18 1441.66 389.977 1438.1 392.031L1387.75 421.103C1384.19 423.157 1379.81 423.157 1376.25 421.103L1325.9 392.031C1322.34 389.977 1320.15 386.18 1320.15 382.072V323.928C1320.15 319.82 1322.34 316.023 1325.9 313.969L1376.25 284.897C1379.81 282.843 1384.19 282.843 1387.75 284.897Z" stroke="#3366FF" stroke-opacity="0.15"></path><path d="M1799.75 284.897L1850.1 313.969C1853.66 316.023 1855.85 319.82 1855.85 323.928V382.072C1855.85 386.18 1853.66 389.977 1850.1 392.031L1799.75 421.103C1796.19 423.157 1791.81 423.157 1788.25 421.103L1737.9 392.031C1734.34 389.977 1732.15 386.18 1732.15 382.072V323.928C1732.15 319.82 1734.34 316.023 1737.9 313.969L1788.25 284.897C1791.81 282.843 1796.19 282.843 1799.75 284.897Z" stroke="#3366FF" stroke-opacity="0.15"></path><path d="M8.75 284.897L59.1038 313.969C62.6619 316.023 64.8538 319.82 64.8538 323.928V382.072C64.8538 386.18 62.6619 389.977 59.1038 392.031L8.75 421.103C5.19189 423.157 0.808113 423.157 -2.75 421.103L-53.1038 392.031C-56.6619 389.977 -58.8538 386.18 -58.8538 382.072V323.928C-58.8538 319.82 -56.6619 316.023 -53.1038 313.969L-2.75 284.897C0.808113 282.843 5.19189 282.843 8.75 284.897Z" stroke="#3366FF" stroke-opacity="0.15"></path><defs><linearGradient id="paint0_linear_2651_1301" x1="2682.5" y1="1280" x2="2682.5" y2="640" gradientUnits="userSpaceOnUse"><stop stop-color="#001238"></stop><stop offset="1" stop-color="#002471"></stop></linearGradient></defs></svg> 